{
  "accessors": [
    {
      "name": "polySurface45_1_0_positions",
      "componentType": 5126,
      "count": 327,
      "min": [
        -3.361510992050171,
        -0.46590399742126465,
        0
      ],
      "max": [
        3.361510992050171,
        1.1500020027160645,
        5.721526145935059
      ],
      "type": "VEC3",
      "bufferView": 0,
      "byteOffset": 0
    },
    {
      "name": "polySurface45_1_0_normals",
      "componentType": 5126,
      "count": 327,
      "min": [
        -1,
        -1,
        -1
      ],
      "max": [
        1,
        1,
        1
      ],
      "type": "VEC3",
      "bufferView": 1,
      "byteOffset": 0
    },
    {
      "name": "polySurface45_1_0_texcoords",
      "componentType": 5126,
      "count": 327,
      "min": [
        0.005317999981343746,
        0.01192300021648407
      ],
      "max": [
        0.9812960028648376,
        0.9980080127716064
      ],
      "type": "VEC2",
      "bufferView": 2,
      "byteOffset": 0
    },
    {
      "name": "polySurface45_1_0_indices",
      "componentType": 5123,
      "count": 327,
      "min": [
        0
      ],
      "max": [
        326
      ],
      "type": "SCALAR",
      "bufferView": 3,
      "byteOffset": 0
    },
    {
      "name": "polySurface45_1_1_positions",
      "componentType": 5126,
      "count": 354,
      "min": [
        -0.7327659726142883,
        -1.0339280366897583,
        5.721526145935059
      ],
      "max": [
        0.7344139814376831,
        1.355036973953247,
        6.844060897827148
      ],
      "type": "VEC3",
      "bufferView": 0,
      "byteOffset": 3924
    },
    {
      "name": "polySurface45_1_1_normals",
      "componentType": 5126,
      "count": 354,
      "min": [
        -1,
        -0.9626384377479553,
        -1
      ],
      "max": [
        1,
        0.9862444996833801,
        1
      ],
      "type": "VEC3",
      "bufferView": 1,
      "byteOffset": 3924
    },
    {
      "name": "polySurface45_1_1_texcoords",
      "componentType": 5126,
      "count": 354,
      "min": [
        0.0018210000125691295,
        0.0019920000340789557
      ],
      "max": [
        0.9125440120697021,
        0.9980080127716064
      ],
      "type": "VEC2",
      "bufferView": 2,
      "byteOffset": 2616
    },
    {
      "name": "polySurface45_1_1_indices",
      "componentType": 5123,
      "count": 354,
      "min": [
        0
      ],
      "max": [
        353
      ],
      "type": "SCALAR",
      "bufferView": 3,
      "byteOffset": 656
    }
  ],
  "asset": {
    "generator": "obj2gltf",
    "version": "2.0"
  },
  "buffers": [
    {
      "name": "biggie",
      "byteLength": 23156,
      "uri": "data:application/octet-stream;base64,"
    }
  ],
  "bufferViews": [
    {
      "name": "bufferView_0",
      "buffer": 0,
      "byteLength": 8172,
      "byteOffset": 0,
      "byteStride": 12,
      "target": 34962
    },
    {
      "name": "bufferView_1",
      "buffer": 0,
      "byteLength": 8172,
      "byteOffset": 8172,
      "byteStride": 12,
      "target": 34962
    },
    {
      "name": "bufferView_2",
      "buffer": 0,
      "byteLength": 5448,
      "byteOffset": 16344,
      "byteStride": 8,
      "target": 34962
    },
    {
      "name": "bufferView_3",
      "buffer": 0,
      "byteLength": 1364,
      "byteOffset": 21792,
      "target": 34963
    }
  ],
  "materials": [
    {
      "name": "Biggie_MAT",
      "pbrMetallicRoughness": {
        "baseColorFactor": [
          0.5,
          0.5,
          0.5,
          1
        ],
        "metallicFactor": 0,
        "roughnessFactor": 1
      },
      "emissiveFactor": [
        0,
        0,
        0
      ],
      "alphaMode": "OPAQUE",
      "doubleSided": false
    },
    {
      "name": "HardHat_MAT",
      "pbrMetallicRoughness": {
        "baseColorFactor": [
          0.5,
          0.5,
          0.5,
          1
        ],
        "metallicFactor": 0,
        "roughnessFactor": 1
      },
      "emissiveFactor": [
        0,
        0,
        0
      ],
      "alphaMode": "OPAQUE",
      "doubleSided": false
    }
  ],
  "meshes": [
    {
      "name": "polySurface45_1",
      "primitives": [
        {
          "attributes": {
            "POSITION": 0,
            "NORMAL": 1,
            "TEXCOORD_0": 2
          },
          "indices": 3,
          "material": 0,
          "mode": 4
        },
        {
          "attributes": {
            "POSITION": 4,
            "NORMAL": 5,
            "TEXCOORD_0": 6
          },
          "indices": 7,
          "material": 1,
          "mode": 4
        }
      ]
    }
  ],
  "nodes": [
    {
      "name": "polySurface45",
      "mesh": 0
    }
  ],
  "scene": 0,
  "scenes": [
    {
      "nodes": [
        0
      ]
    }
  ]
}
