{
  "accessors": [
    {
      "name": "pCube10_1_0_positions",
      "componentType": 5126,
      "count": 228,
      "min": [
        -0.7809450030326843,
        -0.7925930023193359,
        0
      ],
      "max": [
        0.7809450030326843,
        0.7925930023193359,
        0.9822679758071899
      ],
      "type": "VEC3",
      "bufferView": 0,
      "byteOffset": 0
    },
    {
      "name": "pCube10_1_0_normals",
      "componentType": 5126,
      "count": 228,
      "min": [
        -0.9698166847229004,
        -0.9698166847229004,
        -0.9998567700386047
      ],
      "max": [
        0.9698166847229004,
        0.9698166847229004,
        0.9998567700386047
      ],
      "type": "VEC3",
      "bufferView": 1,
      "byteOffset": 0
    },
    {
      "name": "pCube10_1_0_texcoords",
      "componentType": 5126,
      "count": 228,
      "min": [
        0.125,
        0
      ],
      "max": [
        0.875,
        1
      ],
      "type": "VEC2",
      "bufferView": 2,
      "byteOffset": 0
    },
    {
      "name": "pCube10_1_0_indices",
      "componentType": 5123,
      "count": 972,
      "min": [
        0
      ],
      "max": [
        227
      ],
      "type": "SCALAR",
      "bufferView": 3,
      "byteOffset": 0
    }
  ],
  "asset": {
    "generator": "obj2gltf",
    "version": "2.0"
  },
  "buffers": [
    {
      "name": "BuildingBlocks",
      "byteLength": 9240,
      "uri": "data:application/octet-stream;base64,"
    }
  ],
  "bufferViews": [
    {
      "name": "bufferView_0",
      "buffer": 0,
      "byteLength": 2736,
      "byteOffset": 0,
      "byteStride": 12,
      "target": 34962
    },
    {
      "name": "bufferView_1",
      "buffer": 0,
      "byteLength": 2736,
      "byteOffset": 2736,
      "byteStride": 12,
      "target": 34962
    },
    {
      "name": "bufferView_2",
      "buffer": 0,
      "byteLength": 1824,
      "byteOffset": 5472,
      "byteStride": 8,
      "target": 34962
    },
    {
      "name": "bufferView_3",
      "buffer": 0,
      "byteLength": 1944,
      "byteOffset": 7296,
      "target": 34963
    }
  ],
  "materials": [
    {
      "name": "BuildingBlocks_MAT",
      "pbrMetallicRoughness": {
        "baseColorFactor": [
          0.5,
          0.5,
          0.5,
          1
        ],
        "metallicFactor": 0,
        "roughnessFactor": 1
      },
      "emissiveFactor": [
        0,
        0,
        0
      ],
      "alphaMode": "OPAQUE",
      "doubleSided": false
    }
  ],
  "meshes": [
    {
      "name": "pCube10_1",
      "primitives": [
        {
          "attributes": {
            "POSITION": 0,
            "NORMAL": 1,
            "TEXCOORD_0": 2
          },
          "indices": 3,
          "material": 0,
          "mode": 4
        }
      ]
    }
  ],
  "nodes": [
    {
      "name": "pCube10",
      "mesh": 0
    }
  ],
  "scene": 0,
  "scenes": [
    {
      "nodes": [
        0
      ]
    }
  ]
}
