{
  "accessors": [
    {
      "name": "asdfsadf6 polySurface66 polySurface70 polySurface71_1_0_positions",
      "componentType": 5126,
      "count": 36,
      "min": [
        -1.3426860570907593,
        -1.3319900035858154,
        2.093997001647949
      ],
      "max": [
        1.3297139406204224,
        1.3319900035858154,
        5.731147766113281
      ],
      "type": "VEC3",
      "bufferView": 0,
      "byteOffset": 0
    },
    {
      "name": "asdfsadf6 polySurface66 polySurface70 polySurface71_1_0_normals",
      "componentType": 5126,
      "count": 36,
      "min": [
        -0.9819638133049011,
        -0.9772459864616394,
        -1
      ],
      "max": [
        0.9725586175918579,
        0.98609459400177,
        0.3334779739379883
      ],
      "type": "VEC3",
      "bufferView": 1,
      "byteOffset": 0
    },
    {
      "name": "asdfsadf6 polySurface66 polySurface70 polySurface71_1_0_texcoords",
      "componentType": 5126,
      "count": 36,
      "min": [
        0.18957999348640442,
        0.3956820070743561
      ],
      "max": [
        0.9901649951934814,
        0.9924870133399963
      ],
      "type": "VEC2",
      "bufferView": 2,
      "byteOffset": 0
    },
    {
      "name": "asdfsadf6 polySurface66 polySurface70 polySurface71_1_0_indices",
      "componentType": 5123,
      "count": 54,
      "min": [
        0
      ],
      "max": [
        35
      ],
      "type": "SCALAR",
      "bufferView": 3,
      "byteOffset": 0
    },
    {
      "name": "polySurface66 polySurface70 polySurface71_1_0_positions",
      "componentType": 5126,
      "count": 4,
      "min": [
        -0.5019189715385437,
        -0.5312830209732056,
        5.731147766113281
      ],
      "max": [
        0.5270400047302246,
        0.49184200167655945,
        5.731147766113281
      ],
      "type": "VEC3",
      "bufferView": 0,
      "byteOffset": 432
    },
    {
      "name": "polySurface66 polySurface70 polySurface71_1_0_normals",
      "componentType": 5126,
      "count": 4,
      "min": [
        0,
        0,
        1
      ],
      "max": [
        0,
        0,
        1
      ],
      "type": "VEC3",
      "bufferView": 1,
      "byteOffset": 432
    },
    {
      "name": "polySurface66 polySurface70 polySurface71_1_0_texcoords",
      "componentType": 5126,
      "count": 4,
      "min": [
        0.6355109810829163,
        0.2987770140171051
      ],
      "max": [
        0.7329679727554321,
        0.3956820070743561
      ],
      "type": "VEC2",
      "bufferView": 2,
      "byteOffset": 288
    },
    {
      "name": "polySurface66 polySurface70 polySurface71_1_0_indices",
      "componentType": 5123,
      "count": 6,
      "min": [
        0
      ],
      "max": [
        3
      ],
      "type": "SCALAR",
      "bufferView": 3,
      "byteOffset": 108
    },
    {
      "name": "asdfsadf6 polySurface66 polySurface69 polySurface71_1_0_positions",
      "componentType": 5126,
      "count": 52,
      "min": [
        -0.8263710141181946,
        -0.7605360150337219,
        0.0019839999731630087
      ],
      "max": [
        0.8133990168571472,
        0.5479549765586853,
        2.093997001647949
      ],
      "type": "VEC3",
      "bufferView": 0,
      "byteOffset": 480
    },
    {
      "name": "asdfsadf6 polySurface66 polySurface69 polySurface71_1_0_normals",
      "componentType": 5126,
      "count": 52,
      "min": [
        -1,
        -1,
        -1
      ],
      "max": [
        1,
        1,
        0.849661111831665
      ],
      "type": "VEC3",
      "bufferView": 1,
      "byteOffset": 480
    },
    {
      "name": "asdfsadf6 polySurface66 polySurface69 polySurface71_1_0_texcoords",
      "componentType": 5126,
      "count": 52,
      "min": [
        0.24406899511814117,
        0.07998800277709961
      ],
      "max": [
        0.8025529980659485,
        0.40208199620246887
      ],
      "type": "VEC2",
      "bufferView": 2,
      "byteOffset": 320
    },
    {
      "name": "asdfsadf6 polySurface66 polySurface69 polySurface71_1_0_indices",
      "componentType": 5123,
      "count": 78,
      "min": [
        0
      ],
      "max": [
        51
      ],
      "type": "SCALAR",
      "bufferView": 3,
      "byteOffset": 120
    },
    {
      "name": "polySurface66 polySurface69 polySurface71_1_0_positions",
      "componentType": 5126,
      "count": 4,
      "min": [
        -0.7267959713935852,
        -0.29903000593185425,
        2.093997001647949
      ],
      "max": [
        0.7138239741325378,
        0.4071750044822693,
        2.093997001647949
      ],
      "type": "VEC3",
      "bufferView": 0,
      "byteOffset": 1104
    },
    {
      "name": "polySurface66 polySurface69 polySurface71_1_0_normals",
      "componentType": 5126,
      "count": 4,
      "min": [
        0,
        0,
        1
      ],
      "max": [
        0,
        0,
        1
      ],
      "type": "VEC3",
      "bufferView": 1,
      "byteOffset": 1104
    },
    {
      "name": "polySurface66 polySurface69 polySurface71_1_0_texcoords",
      "componentType": 5126,
      "count": 4,
      "min": [
        0.3773989975452423,
        0.013101000338792801
      ],
      "max": [
        0.51385498046875,
        0.08000800013542175
      ],
      "type": "VEC2",
      "bufferView": 2,
      "byteOffset": 736
    },
    {
      "name": "polySurface66 polySurface69 polySurface71_1_0_indices",
      "componentType": 5123,
      "count": 6,
      "min": [
        0
      ],
      "max": [
        3
      ],
      "type": "SCALAR",
      "bufferView": 3,
      "byteOffset": 276
    },
    {
      "name": "asdfsadf6 polySurface66 polySurface68 polySurface71_1_0_positions",
      "componentType": 5126,
      "count": 20,
      "min": [
        0.3546450138092041,
        -0.3316729962825775,
        2.7395710945129395
      ],
      "max": [
        1.1922839879989624,
        0.34358999133110046,
        4.869530200958252
      ],
      "type": "VEC3",
      "bufferView": 0,
      "byteOffset": 1152
    },
    {
      "name": "asdfsadf6 polySurface66 polySurface68 polySurface71_1_0_normals",
      "componentType": 5126,
      "count": 20,
      "min": [
        -0.000003000000106112566,
        -0.9987257719039917,
        -1
      ],
      "max": [
        0.9914765954017639,
        0.9972164034843445,
        1
      ],
      "type": "VEC3",
      "bufferView": 1,
      "byteOffset": 1152
    },
    {
      "name": "asdfsadf6 polySurface66 polySurface68 polySurface71_1_0_texcoords",
      "componentType": 5126,
      "count": 20,
      "min": [
        0.07398699969053268,
        0.010742000304162502
      ],
      "max": [
        0.2420549988746643,
        0.2732959985733032
      ],
      "type": "VEC2",
      "bufferView": 2,
      "byteOffset": 768
    },
    {
      "name": "asdfsadf6 polySurface66 polySurface68 polySurface71_1_0_indices",
      "componentType": 5123,
      "count": 30,
      "min": [
        0
      ],
      "max": [
        19
      ],
      "type": "SCALAR",
      "bufferView": 3,
      "byteOffset": 288
    },
    {
      "name": "polySurface66 polySurface68 polySurface71_1_0_positions",
      "componentType": 5126,
      "count": 4,
      "min": [
        0.3546450138092041,
        -0.3316729962825775,
        2.7395710945129395
      ],
      "max": [
        1.1078959703445435,
        0.34358999133110046,
        4.869530200958252
      ],
      "type": "VEC3",
      "bufferView": 0,
      "byteOffset": 1392
    },
    {
      "name": "polySurface66 polySurface68 polySurface71_1_0_normals",
      "componentType": 5126,
      "count": 4,
      "min": [
        -0.9427816271781921,
        0,
        -0.3334108591079712
      ],
      "max": [
        -0.9427816271781921,
        0,
        -0.3334108591079712
      ],
      "type": "VEC3",
      "bufferView": 1,
      "byteOffset": 1392
    },
    {
      "name": "polySurface66 polySurface68 polySurface71_1_0_texcoords",
      "componentType": 5126,
      "count": 4,
      "min": [
        0.01206200011074543,
        0.058809999376535416
      ],
      "max": [
        0.1171640008687973,
        0.2724260091781616
      ],
      "type": "VEC2",
      "bufferView": 2,
      "byteOffset": 928
    },
    {
      "name": "polySurface66 polySurface68 polySurface71_1_0_indices",
      "componentType": 5123,
      "count": 6,
      "min": [
        0
      ],
      "max": [
        3
      ],
      "type": "SCALAR",
      "bufferView": 3,
      "byteOffset": 348
    },
    {
      "name": "asdfsadf6 polySurface66 polySurface67 polySurface71_1_0_positions",
      "componentType": 5126,
      "count": 20,
      "min": [
        -1.1922839879989624,
        -0.3316729962825775,
        2.7395710945129395
      ],
      "max": [
        -0.3546450138092041,
        0.34358999133110046,
        4.869530200958252
      ],
      "type": "VEC3",
      "bufferView": 0,
      "byteOffset": 1440
    },
    {
      "name": "asdfsadf6 polySurface66 polySurface67 polySurface71_1_0_normals",
      "componentType": 5126,
      "count": 20,
      "min": [
        -0.9914765954017639,
        -0.9987257719039917,
        -1
      ],
      "max": [
        0.000003000000106112566,
        0.9972164034843445,
        1
      ],
      "type": "VEC3",
      "bufferView": 1,
      "byteOffset": 1440
    },
    {
      "name": "asdfsadf6 polySurface66 polySurface67 polySurface71_1_0_texcoords",
      "componentType": 5126,
      "count": 20,
      "min": [
        0.07530800253152847,
        0.28519898653030396
      ],
      "max": [
        0.2433750033378601,
        0.5477529764175415
      ],
      "type": "VEC2",
      "bufferView": 2,
      "byteOffset": 960
    },
    {
      "name": "asdfsadf6 polySurface66 polySurface67 polySurface71_1_0_indices",
      "componentType": 5123,
      "count": 30,
      "min": [
        0
      ],
      "max": [
        19
      ],
      "type": "SCALAR",
      "bufferView": 3,
      "byteOffset": 360
    },
    {
      "name": "polySurface66 polySurface67 polySurface71_1_0_positions",
      "componentType": 5126,
      "count": 4,
      "min": [
        -1.1078959703445435,
        -0.3316729962825775,
        2.7395710945129395
      ],
      "max": [
        -0.3546450138092041,
        0.34358999133110046,
        4.869530200958252
      ],
      "type": "VEC3",
      "bufferView": 0,
      "byteOffset": 1680
    },
    {
      "name": "polySurface66 polySurface67 polySurface71_1_0_normals",
      "componentType": 5126,
      "count": 4,
      "min": [
        0.9427816271781921,
        0,
        -0.3334108591079712
      ],
      "max": [
        0.9427816271781921,
        0,
        -0.3334108591079712
      ],
      "type": "VEC3",
      "bufferView": 1,
      "byteOffset": 1680
    },
    {
      "name": "polySurface66 polySurface67 polySurface71_1_0_texcoords",
      "componentType": 5126,
      "count": 4,
      "min": [
        0.013381999917328358,
        0.28606900572776794
      ],
      "max": [
        0.11848500370979309,
        0.49968498945236206
      ],
      "type": "VEC2",
      "bufferView": 2,
      "byteOffset": 1120
    },
    {
      "name": "polySurface66 polySurface67 polySurface71_1_0_indices",
      "componentType": 5123,
      "count": 6,
      "min": [
        0
      ],
      "max": [
        3
      ],
      "type": "SCALAR",
      "bufferView": 3,
      "byteOffset": 420
    },
    {
      "name": "polySurface71_1_0_positions",
      "componentType": 5126,
      "count": 354,
      "min": [
        -0.7327659726142883,
        -1.3762609958648682,
        5.731147766113281
      ],
      "max": [
        0.7344139814376831,
        1.0127040147781372,
        6.853682994842529
      ],
      "type": "VEC3",
      "bufferView": 0,
      "byteOffset": 1728
    },
    {
      "name": "polySurface71_1_0_normals",
      "componentType": 5126,
      "count": 354,
      "min": [
        -1,
        -0.9626384377479553,
        -1
      ],
      "max": [
        1,
        0.9862444996833801,
        1
      ],
      "type": "VEC3",
      "bufferView": 1,
      "byteOffset": 1728
    },
    {
      "name": "polySurface71_1_0_texcoords",
      "componentType": 5126,
      "count": 354,
      "min": [
        0.0018210000125691295,
        0.0019920000340789557
      ],
      "max": [
        0.9125440120697021,
        0.9980080127716064
      ],
      "type": "VEC2",
      "bufferView": 2,
      "byteOffset": 1152
    },
    {
      "name": "polySurface71_1_0_indices",
      "componentType": 5123,
      "count": 354,
      "min": [
        0
      ],
      "max": [
        353
      ],
      "type": "SCALAR",
      "bufferView": 3,
      "byteOffset": 432
    }
  ],
  "asset": {
    "generator": "obj2gltf",
    "version": "2.0"
  },
  "buffers": [
    {
      "name": "Pyra",
      "byteLength": 17076,
      "uri": "data:application/octet-stream;base64,"
    }
  ],
  "bufferViews": [
    {
      "name": "bufferView_0",
      "buffer": 0,
      "byteLength": 5976,
      "byteOffset": 0,
      "byteStride": 12,
      "target": 34962
    },
    {
      "name": "bufferView_1",
      "buffer": 0,
      "byteLength": 5976,
      "byteOffset": 5976,
      "byteStride": 12,
      "target": 34962
    },
    {
      "name": "bufferView_2",
      "buffer": 0,
      "byteLength": 3984,
      "byteOffset": 11952,
      "byteStride": 8,
      "target": 34962
    },
    {
      "name": "bufferView_3",
      "buffer": 0,
      "byteLength": 1140,
      "byteOffset": 15936,
      "target": 34963
    }
  ],
  "materials": [
    {
      "name": "Pyra_MAT",
      "pbrMetallicRoughness": {
        "baseColorFactor": [
          0.5,
          0.5,
          0.5,
          1
        ],
        "metallicFactor": 0,
        "roughnessFactor": 1
      },
      "emissiveFactor": [
        0,
        0,
        0
      ],
      "alphaMode": "OPAQUE",
      "doubleSided": false
    },
    {
      "name": "HardHat_MAT",
      "pbrMetallicRoughness": {
        "baseColorFactor": [
          0.5,
          0.5,
          0.5,
          1
        ],
        "metallicFactor": 0,
        "roughnessFactor": 1
      },
      "emissiveFactor": [
        0,
        0,
        0
      ],
      "alphaMode": "OPAQUE",
      "doubleSided": false
    }
  ],
  "meshes": [
    {
      "name": "asdfsadf6 polySurface66 polySurface70 polySurface71_1",
      "primitives": [
        {
          "attributes": {
            "POSITION": 0,
            "NORMAL": 1,
            "TEXCOORD_0": 2
          },
          "indices": 3,
          "material": 0,
          "mode": 4
        }
      ]
    },
    {
      "name": "polySurface66 polySurface70 polySurface71_1",
      "primitives": [
        {
          "attributes": {
            "POSITION": 4,
            "NORMAL": 5,
            "TEXCOORD_0": 6
          },
          "indices": 7,
          "material": 0,
          "mode": 4
        }
      ]
    },
    {
      "name": "asdfsadf6 polySurface66 polySurface69 polySurface71_1",
      "primitives": [
        {
          "attributes": {
            "POSITION": 8,
            "NORMAL": 9,
            "TEXCOORD_0": 10
          },
          "indices": 11,
          "material": 0,
          "mode": 4
        }
      ]
    },
    {
      "name": "polySurface66 polySurface69 polySurface71_1",
      "primitives": [
        {
          "attributes": {
            "POSITION": 12,
            "NORMAL": 13,
            "TEXCOORD_0": 14
          },
          "indices": 15,
          "material": 0,
          "mode": 4
        }
      ]
    },
    {
      "name": "asdfsadf6 polySurface66 polySurface68 polySurface71_1",
      "primitives": [
        {
          "attributes": {
            "POSITION": 16,
            "NORMAL": 17,
            "TEXCOORD_0": 18
          },
          "indices": 19,
          "material": 0,
          "mode": 4
        }
      ]
    },
    {
      "name": "polySurface66 polySurface68 polySurface71_1",
      "primitives": [
        {
          "attributes": {
            "POSITION": 20,
            "NORMAL": 21,
            "TEXCOORD_0": 22
          },
          "indices": 23,
          "material": 0,
          "mode": 4
        }
      ]
    },
    {
      "name": "asdfsadf6 polySurface66 polySurface67 polySurface71_1",
      "primitives": [
        {
          "attributes": {
            "POSITION": 24,
            "NORMAL": 25,
            "TEXCOORD_0": 26
          },
          "indices": 27,
          "material": 0,
          "mode": 4
        }
      ]
    },
    {
      "name": "polySurface66 polySurface67 polySurface71_1",
      "primitives": [
        {
          "attributes": {
            "POSITION": 28,
            "NORMAL": 29,
            "TEXCOORD_0": 30
          },
          "indices": 31,
          "material": 0,
          "mode": 4
        }
      ]
    },
    {
      "name": "polySurface71_1",
      "primitives": [
        {
          "attributes": {
            "POSITION": 32,
            "NORMAL": 33,
            "TEXCOORD_0": 34
          },
          "indices": 35,
          "material": 1,
          "mode": 4
        }
      ]
    }
  ],
  "nodes": [
    {
      "name": "asdfsadf6 polySurface66 polySurface70 polySurface71",
      "mesh": 0
    },
    {
      "name": "polySurface66 polySurface70 polySurface71",
      "mesh": 1
    },
    {
      "name": "asdfsadf6 polySurface66 polySurface69 polySurface71",
      "mesh": 2
    },
    {
      "name": "polySurface66 polySurface69 polySurface71",
      "mesh": 3
    },
    {
      "name": "asdfsadf6 polySurface66 polySurface68 polySurface71",
      "mesh": 4
    },
    {
      "name": "polySurface66 polySurface68 polySurface71",
      "mesh": 5
    },
    {
      "name": "asdfsadf6 polySurface66 polySurface67 polySurface71",
      "mesh": 6
    },
    {
      "name": "polySurface66 polySurface67 polySurface71",
      "mesh": 7
    },
    {
      "name": "polySurface71",
      "mesh": 8
    }
  ],
  "scene": 0,
  "scenes": [
    {
      "nodes": [
        0,
        1,
        2,
        3,
        4,
        5,
        6,
        7,
        8
      ]
    }
  ]
}
